<?xml version="1.0"?>
<svg xmlns="http://www.w3.org/2000/svg" xmlns:lc="https://librecad.org" xmlns:xlink="http://www.w3.org/1999/xlink" width="40mm" height="40mm" viewBox="0 0 40 40">
    <g lc:layername="0" lc:is_locked="false" lc:is_construction="false" fill="none" stroke="black" stroke-width="0.2"/>
    <g lc:layername="Lines" lc:is_locked="false" lc:is_construction="false" fill="none" stroke="black" stroke-width="0.2">
        <circle cx="20" cy="20" r="20"/>
        <line x1="15" y1="30" x2="25" y2="30"/>
        <line x1="25" y1="30" x2="25" y2="31"/>
        <line x1="25" y1="31" x2="15" y2="31"/>
        <line x1="15" y1="31" x2="15" y2="30"/>
        <line x1="30" y1="17" x2="31" y2="17"/>
        <line x1="31" y1="17" x2="31" y2="23"/>
        <line x1="31" y1="23" x2="30" y2="23"/>
        <line x1="30" y1="17" x2="30" y2="23"/>
        <line x1="10" y1="17" x2="9" y2="17"/>
        <line x1="9" y1="17" x2="9" y2="23"/>
        <line x1="9" y1="23" x2="10" y2="23"/>
        <line x1="10" y1="17" x2="10" y2="23"/>
        <line x1="17" y1="10" x2="17" y2="9"/>
        <line x1="17" y1="9" x2="23" y2="9"/>
        <line x1="23" y1="9" x2="23" y2="10"/>
        <line x1="17" y1="10" x2="23" y2="10"/>
    </g>
</svg>
